<?xml version="1.0" standalone="no"?>
<!DOCTYPE svg PUBLIC "-//W3C//DTD SVG 20010904//EN"
 "http://www.w3.org/TR/2001/REC-SVG-20010904/DTD/svg10.dtd">
<svg version="1.0" xmlns="http://www.w3.org/2000/svg"
 width="1390.000000pt" height="1390.000000pt" viewBox="0 0 1390.000000 1390.000000"
 preserveAspectRatio="xMidYMid meet">
<metadata>
Created by potrace 1.14, written by Peter Selinger 2001-2017
</metadata>
<g transform="translate(0.000000,1390.000000) scale(0.100000,-0.100000)"
fill="#000000" stroke="none">
<path d="M6416 13736 c6 -16 5 -17 -16 -6 -18 10 -21 9 -15 -1 6 -8 4 -11 -7
-6 -9 3 -21 0 -28 -6 -10 -9 -11 -9 -6 0 4 8 -2 11 -21 8 -16 -2 -28 -4 -28
-5 0 -1 -44 -8 -93 -13 -15 -2 -32 -6 -37 -9 -6 -3 -20 -4 -32 -3 -13 1 -23
-1 -23 -5 0 -4 -14 -6 -30 -5 -17 1 -33 -2 -35 -6 -3 -4 -18 -6 -35 -5 -16 1
-30 -1 -30 -4 0 -3 -8 -6 -17 -7 -10 0 -38 -4 -63 -8 -25 -5 -51 -8 -57 -8 -7
0 -13 -4 -13 -8 0 -4 -12 -6 -26 -4 -19 2 -24 -1 -20 -14 4 -11 2 -10 -9 3 -8
11 -15 15 -15 8 0 -6 -7 -9 -17 -5 -10 4 -14 2 -10 -4 4 -6 0 -14 -9 -17 -8
-3 -12 -2 -9 4 3 6 1 10 -4 10 -6 0 -11 -4 -11 -9 0 -4 -11 -7 -25 -6 -16 2
-23 -1 -19 -7 5 -7 -2 -9 -20 -6 -14 3 -26 1 -26 -4 0 -5 -6 -8 -12 -7 -26 3
-39 -1 -33 -11 4 -7 -3 -8 -21 -4 -21 6 -25 4 -19 -7 7 -11 5 -11 -10 1 -11 9
-16 10 -11 3 6 -12 -5 -18 -26 -14 -5 0 -8 -3 -8 -8 0 -5 -9 -7 -20 -4 -12 3
-20 0 -20 -8 0 -7 -3 -9 -7 -6 -3 4 -13 1 -21 -6 -13 -10 -15 -9 -8 3 4 8 0 6
-8 -4 -9 -11 -16 -14 -16 -8 0 10 -3 10 -14 0 -8 -7 -11 -17 -8 -23 3 -5 -2
-4 -11 4 -12 9 -17 10 -17 2 0 -7 -4 -10 -9 -6 -6 3 -14 -2 -19 -11 -6 -12
-11 -13 -16 -5 -5 8 -15 5 -33 -9 -14 -11 -29 -17 -34 -14 -5 3 -9 1 -9 -4 0
-10 -41 -25 -69 -27 -8 0 -16 -6 -19 -13 -2 -6 -8 -10 -13 -6 -5 3 -9 0 -9 -6
0 -6 -4 -8 -10 -5 -5 3 -10 1 -10 -5 0 -6 -4 -8 -10 -5 -5 3 -10 1 -10 -5 0
-7 -7 -9 -15 -6 -9 3 -18 -1 -21 -9 -4 -8 -10 -13 -14 -10 -4 3 -13 -2 -20
-10 -7 -8 -16 -12 -21 -9 -5 3 -12 -2 -15 -10 -3 -9 -10 -13 -15 -10 -5 3 -9
0 -9 -5 0 -6 -9 -11 -20 -11 -12 0 -20 -7 -21 -17 0 -11 -3 -13 -6 -5 -2 6
-10 12 -16 12 -5 0 -7 -3 -4 -7 9 -9 -52 -45 -64 -37 -5 3 -8 2 -7 -3 2 -4 -1
-10 -7 -12 -5 -2 -15 -11 -21 -19 -7 -9 -16 -12 -24 -7 -10 6 -12 3 -8 -13 4
-12 2 -19 -3 -16 -13 8 -50 -6 -44 -17 4 -5 1 -10 -4 -10 -6 -1 -17 -2 -23 -3
-7 -1 -12 -7 -10 -14 1 -7 -1 -11 -5 -11 -22 4 -33 -3 -34 -18 0 -10 -3 -13
-6 -6 -3 10 -7 10 -18 0 -7 -7 -10 -16 -7 -21 3 -5 -4 -7 -16 -4 -15 4 -19 2
-15 -9 3 -7 2 -13 -3 -12 -21 4 -35 -2 -29 -11 3 -5 1 -10 -5 -10 -6 0 -18 -6
-25 -12 -34 -31 -45 -38 -57 -38 -9 0 -9 -3 2 -10 12 -8 12 -10 -5 -10 -11 0
-27 -5 -35 -11 -13 -9 -12 -10 3 -5 11 3 16 2 12 -4 -3 -6 -13 -10 -21 -10 -8
0 -17 -7 -20 -15 -4 -8 -10 -12 -15 -9 -5 3 -9 -2 -9 -11 0 -9 -4 -14 -9 -11
-5 3 -12 -1 -15 -10 -4 -10 -12 -14 -22 -10 -14 5 -15 4 -4 -9 10 -13 9 -15
-9 -15 -12 0 -19 -4 -16 -10 3 -5 -1 -10 -10 -10 -9 0 -14 -3 -12 -7 3 -5 -1
-14 -9 -21 -8 -7 -14 -10 -14 -7 0 3 -8 -3 -18 -12 -11 -10 -17 -21 -16 -24 2
-3 -8 -12 -21 -19 -14 -7 -25 -20 -25 -28 0 -9 -2 -13 -6 -10 -6 7 -61 -45
-57 -54 2 -4 -6 -12 -17 -18 -11 -6 -18 -15 -15 -20 3 -5 -6 -12 -21 -16 -19
-5 -22 -9 -12 -15 10 -6 10 -9 1 -9 -7 0 -13 -7 -13 -15 0 -8 -4 -15 -10 -15
-17 0 -46 -36 -42 -51 3 -8 1 -11 -3 -7 -7 7 -43 -22 -37 -30 2 -2 -8 -14 -23
-28 -14 -13 -23 -24 -19 -24 3 0 -4 -9 -17 -20 -21 -18 -21 -19 -4 -14 l20 7
-20 -16 c-11 -9 -27 -17 -35 -17 -11 -1 -11 -3 -2 -7 9 -4 7 -10 -7 -22 -12
-10 -18 -21 -14 -25 3 -3 0 -6 -7 -6 -7 0 -10 -3 -7 -6 4 -4 -3 -15 -14 -25
-13 -11 -18 -23 -13 -31 4 -7 4 -10 -1 -6 -8 8 -32 -18 -33 -35 0 -5 -12 -19
-27 -33 -14 -13 -20 -24 -13 -24 8 0 6 -5 -4 -11 -10 -5 -18 -17 -18 -25 0 -9
-5 -12 -12 -8 -7 5 -9 2 -5 -9 4 -11 -1 -18 -15 -23 -16 -5 -18 -8 -7 -15 11
-6 10 -9 -4 -15 -9 -3 -15 -10 -12 -14 3 -5 -3 -13 -12 -19 -10 -6 -14 -11
-10 -11 5 0 1 -7 -7 -16 -9 -8 -14 -20 -11 -25 4 -5 2 -9 -4 -9 -5 0 -13 -9
-16 -20 -4 -12 -11 -17 -18 -13 -7 4 -6 -1 2 -10 12 -15 11 -17 -3 -17 -10 0
-14 -4 -11 -10 7 -11 -25 -71 -35 -65 -3 2 -7 -6 -7 -17 -1 -12 -7 -24 -13
-28 -6 -4 -12 -17 -13 -28 -1 -12 -5 -22 -10 -22 -5 0 -7 -7 -3 -15 3 -8 0
-14 -6 -12 -7 1 -13 -4 -14 -10 -1 -7 -2 -18 -3 -24 0 -5 -5 -7 -11 -4 -5 3
-10 2 -10 -4 0 -5 6 -11 13 -14 7 -3 2 -9 -13 -15 -14 -6 -19 -11 -11 -11 10
-1 11 -4 2 -14 -6 -8 -8 -17 -4 -20 3 -4 1 -7 -6 -7 -8 0 -11 -8 -8 -20 3 -11
0 -18 -7 -17 -6 1 -10 -8 -10 -20 1 -13 -3 -20 -7 -17 -8 5 -14 -17 -10 -38 0
-5 -3 -8 -7 -8 -4 0 -8 -10 -9 -22 -1 -12 -8 -25 -16 -30 -9 -4 -12 -17 -9
-33 2 -14 0 -25 -6 -25 -6 0 -9 -9 -7 -19 2 -11 -3 -22 -13 -26 -14 -5 -14 -7
-2 -15 10 -7 11 -10 3 -10 -7 0 -13 -11 -13 -25 0 -14 -4 -25 -8 -25 -7 0 -11
-16 -14 -57 -1 -7 -6 -13 -11 -13 -5 0 -4 -7 3 -15 10 -12 10 -15 -3 -15 -11
0 -13 -6 -9 -22 3 -13 1 -19 -6 -15 -12 8 -11 -11 2 -32 6 -10 5 -12 -2 -7 -8
5 -12 -1 -12 -14 0 -13 -4 -19 -11 -14 -8 5 -8 1 0 -14 7 -14 8 -23 1 -27 -6
-4 -8 -11 -5 -16 4 -5 1 -9 -4 -9 -6 0 -11 -5 -11 -11 0 -5 6 -7 13 -3 9 6 9
5 0 -7 -13 -16 -21 -47 -22 -87 -1 -16 -5 -21 -13 -16 -9 5 -9 2 1 -9 9 -11
10 -17 2 -17 -13 0 -10 -22 4 -32 6 -4 1 -8 -10 -8 -11 0 -15 -4 -10 -8 6 -4
11 -15 11 -25 1 -12 -2 -15 -10 -8 -8 6 -11 2 -11 -15 0 -13 4 -24 9 -24 5 0
4 -6 -1 -12 -13 -18 -15 -66 -2 -73 7 -5 4 -14 -7 -27 -16 -16 -16 -21 -4 -28
12 -8 11 -10 -5 -10 -15 0 -17 -2 -6 -9 7 -5 9 -11 4 -14 -11 -7 -11 -46 0
-64 6 -9 3 -11 -7 -7 -12 4 -13 -1 -6 -30 5 -24 4 -37 -4 -40 -7 -3 -7 -5 2
-5 10 -1 10 -6 2 -21 -8 -14 -8 -20 0 -20 7 0 8 -7 2 -17 -4 -10 -7 -35 -5
-56 1 -27 -1 -36 -10 -30 -8 5 -8 2 1 -9 9 -12 10 -18 2 -23 -8 -5 -8 -11 0
-20 7 -8 9 -19 6 -24 -4 -5 -2 -12 4 -16 6 -4 8 -11 5 -16 -12 -19 -13 -49 -3
-49 7 0 3 -7 -8 -16 -10 -8 -14 -13 -8 -10 7 3 15 -1 18 -10 3 -8 2 -12 -4 -9
-6 3 -10 1 -10 -4 0 -6 3 -11 8 -11 4 0 7 -25 6 -55 -1 -31 3 -58 8 -61 4 -3
8 -11 8 -17 0 -7 -4 -6 -10 3 -7 12 -9 10 -7 -7 0 -12 4 -20 8 -17 4 2 7 -5 6
-16 -1 -11 -6 -20 -12 -20 -6 0 -7 -3 0 -8 6 -4 11 -11 11 -17 6 -35 16 -105
20 -135 3 -19 7 -51 9 -70 2 -19 5 -37 6 -40 1 -3 3 -9 4 -15 2 -5 4 -13 5
-17 1 -5 3 -16 4 -25 2 -10 6 -40 11 -68 5 -27 9 -59 11 -70 1 -11 3 -22 4
-25 1 -3 2 -8 1 -12 0 -5 3 -8 8 -8 4 0 6 -11 3 -25 -3 -16 0 -25 8 -25 10 0
10 -3 0 -15 -9 -11 -9 -15 -1 -15 7 0 10 -4 6 -9 -3 -5 -1 -12 4 -16 6 -3 7
-13 4 -22 -5 -12 -3 -14 8 -8 11 7 11 5 -1 -10 -8 -10 -10 -16 -4 -12 7 4 14
0 18 -8 3 -8 0 -15 -7 -15 -8 0 -6 -4 3 -10 8 -5 12 -10 7 -10 -4 0 -1 -15 7
-34 8 -19 12 -37 8 -40 -3 -3 1 -6 9 -6 11 0 11 -2 -1 -10 -11 -7 -11 -10 -2
-10 7 0 11 -4 7 -9 -3 -5 0 -15 7 -23 7 -7 15 -29 16 -48 2 -19 10 -42 18 -51
8 -9 14 -20 12 -25 -1 -5 3 -19 10 -30 6 -12 8 -24 5 -28 -3 -3 0 -6 8 -6 11
0 11 -2 -1 -10 -12 -8 -12 -10 5 -10 17 0 17 -2 5 -10 -11 -7 -11 -10 -2 -10
7 0 10 -4 7 -10 -3 -5 -1 -10 4 -10 6 0 11 -9 11 -19 0 -11 4 -21 9 -23 5 -1
11 -14 13 -28 1 -14 9 -31 16 -39 7 -7 11 -20 8 -27 -3 -8 -1 -14 4 -14 6 0
10 -7 10 -15 0 -8 5 -15 10 -15 6 0 10 -11 10 -24 0 -14 5 -28 12 -32 7 -5 8
-3 3 6 -5 8 -4 11 3 6 6 -4 8 -14 5 -23 -4 -9 -2 -14 3 -11 5 4 10 -6 11 -20
0 -14 8 -31 17 -38 10 -7 14 -18 10 -28 -4 -11 -2 -16 7 -14 8 2 13 -3 12 -9
-2 -7 2 -13 8 -13 5 0 7 -4 4 -10 -3 -5 -1 -10 5 -10 7 0 10 -7 6 -15 -5 -13
3 -18 24 -17 3 0 6 -12 7 -26 0 -15 6 -28 12 -30 6 -2 11 -10 11 -18 0 -8 5
-14 11 -14 5 0 7 -4 4 -10 -3 -5 1 -10 10 -10 9 0 13 -5 10 -11 -4 -6 1 -16
11 -23 10 -8 15 -20 11 -30 -5 -11 -1 -16 13 -16 12 0 17 -5 14 -14 -3 -8 3
-20 13 -27 10 -8 19 -21 21 -29 2 -8 8 -16 13 -18 5 -2 9 -10 9 -18 0 -8 8
-14 17 -14 9 0 13 -3 10 -7 -4 -3 1 -12 11 -20 11 -10 12 -12 2 -8 -10 4 -9 2
3 -8 9 -8 17 -19 17 -25 0 -5 7 -12 15 -16 9 -3 12 -12 8 -22 -3 -10 -2 -15 3
-12 8 5 41 -23 47 -39 1 -5 5 -7 9 -6 3 1 11 -11 17 -27 5 -17 15 -30 21 -30
6 0 8 -4 5 -10 -3 -5 -1 -10 5 -10 6 0 8 -4 5 -10 -4 -6 1 -7 11 -3 14 5 16 3
11 -11 -4 -10 -3 -15 3 -11 6 3 10 1 10 -4 0 -6 7 -11 16 -11 14 0 14 -3 4
-16 -11 -12 -11 -15 1 -12 8 2 13 -3 12 -9 -2 -7 3 -12 10 -10 6 1 11 -4 10
-10 -2 -7 3 -13 10 -13 7 0 28 -17 47 -37 19 -20 28 -33 20 -29 -8 5 -2 -3 14
-18 16 -14 33 -23 39 -19 5 3 7 2 4 -4 -4 -6 9 -23 28 -38 18 -16 32 -32 29
-37 -3 -4 2 -5 11 -2 9 4 15 3 14 -2 -3 -20 2 -35 10 -29 5 3 16 -4 25 -16 9
-13 19 -18 28 -13 7 4 10 4 6 -1 -8 -9 15 -35 31 -35 6 0 10 -3 8 -8 -1 -4 0
-7 3 -7 13 -1 56 -51 51 -60 -3 -5 4 -3 14 5 11 9 16 10 11 3 -4 -8 -2 -13 4
-13 6 0 8 -4 5 -10 -3 -5 0 -10 8 -10 8 0 22 -9 32 -20 10 -11 24 -20 32 -20
8 0 11 -4 8 -10 -5 -9 10 -15 18 -7 1 1 17 -13 35 -31 17 -17 38 -32 47 -32 9
0 13 -4 10 -10 -3 -5 1 -10 9 -10 8 0 22 -10 30 -22 9 -12 16 -17 16 -11 0 7
12 1 26 -12 15 -14 30 -22 35 -19 5 3 6 -2 3 -11 -4 -9 -3 -15 2 -13 17 4 54
-13 49 -23 -4 -5 2 -9 12 -9 19 -1 56 -24 48 -31 -2 -3 5 -5 16 -6 10 -1 26
-9 35 -17 9 -9 19 -14 24 -11 4 3 14 -3 21 -13 13 -16 13 -16 -6 -2 -19 14
-19 14 -6 -2 7 -10 17 -16 21 -13 14 9 40 -6 33 -19 -3 -6 -2 -8 2 -3 5 4 17
-1 28 -10 11 -10 17 -12 13 -6 -5 9 -2 11 8 7 9 -3 13 -10 10 -15 -3 -5 8 -12
25 -15 17 -4 28 -10 25 -15 -3 -5 3 -6 12 -2 12 4 15 3 10 -5 -5 -8 -2 -10 8
-6 9 4 18 -1 22 -10 3 -9 10 -14 14 -11 12 7 41 -6 35 -16 -3 -4 4 -6 15 -4
14 3 20 -1 20 -13 0 -15 2 -15 10 -2 7 11 10 11 10 2 0 -7 5 -10 10 -7 6 3 10
1 10 -4 0 -6 9 -11 20 -11 11 0 20 -5 20 -10 0 -6 3 -9 8 -9 18 3 33 -2 28 -9
-2 -4 11 -7 29 -7 19 1 32 -2 30 -6 -3 -4 2 -12 10 -19 12 -10 15 -10 15 1 1
10 5 9 14 -4 8 -10 17 -18 20 -18 25 3 46 0 43 -6 -3 -5 9 -9 26 -10 17 -1 34
-8 38 -14 4 -7 14 -9 22 -6 16 6 50 -49 41 -65 -3 -4 0 -8 7 -8 8 0 8 -4 -1
-15 -7 -8 -8 -15 -2 -15 5 0 10 -11 11 -25 1 -14 2 -36 3 -50 1 -14 4 -25 8
-25 3 0 6 -18 6 -40 1 -34 -2 -40 -20 -41 -12 0 -29 -2 -38 -5 -10 -2 -24 -5
-30 -7 -7 -1 -17 -5 -23 -9 -5 -3 -26 -9 -45 -13 -19 -4 -44 -14 -55 -21 -20
-13 -23 -14 -51 -14 -8 0 -12 -4 -9 -10 3 -5 -3 -10 -14 -10 -12 0 -21 -5 -21
-11 0 -5 -4 -8 -9 -4 -5 3 -12 1 -16 -5 -4 -6 -10 -8 -15 -5 -4 3 -11 -2 -14
-11 -3 -8 -10 -12 -16 -9 -5 3 -10 2 -10 -3 0 -5 -13 -15 -30 -22 -16 -7 -30
-16 -30 -21 0 -5 -5 -9 -11 -9 -7 0 -20 -10 -30 -22 -11 -11 -19 -17 -19 -12
0 5 -13 -6 -30 -24 -16 -18 -31 -31 -33 -30 -6 5 -67 -51 -67 -62 0 -6 -4 -9
-9 -5 -5 3 -19 -7 -30 -21 -12 -15 -21 -24 -21 -21 0 3 -16 -10 -35 -30 -19
-20 -35 -40 -35 -45 0 -4 -4 -7 -8 -6 -4 2 -32 -23 -62 -56 -30 -32 -72 -76
-93 -97 -21 -21 -36 -39 -32 -39 3 0 -4 -11 -17 -24 -44 -45 -66 -74 -61 -80
4 -3 1 -6 -6 -6 -7 0 -10 -4 -7 -9 3 -5 -1 -11 -9 -15 -8 -3 -15 -10 -15 -17
0 -6 -10 -25 -22 -42 -13 -18 -16 -28 -7 -23 11 6 10 4 -1 -6 -9 -7 -15 -20
-15 -28 1 -8 -2 -20 -6 -25 -4 -6 -11 -24 -14 -40 -3 -17 -8 -41 -12 -55 -7
-32 -10 -162 -5 -174 3 -5 5 -29 6 -55 1 -25 4 -48 8 -51 4 -3 8 -23 10 -44 1
-20 6 -40 10 -42 5 -3 6 -10 3 -15 -4 -5 0 -9 7 -9 9 0 9 -3 -2 -10 -10 -6
-11 -10 -2 -10 6 0 11 -3 10 -8 -2 -11 14 -63 28 -91 7 -13 11 -28 9 -32 -3
-4 2 -9 10 -12 8 -4 12 -15 10 -26 -2 -11 3 -22 11 -25 8 -3 14 -10 14 -17 0
-18 109 -176 126 -183 8 -3 13 -10 10 -14 -3 -5 6 -15 20 -22 13 -8 22 -20 20
-27 -3 -8 2 -13 14 -13 11 0 19 -4 18 -9 -2 -5 14 -22 34 -39 21 -16 35 -32
31 -36 -3 -3 0 -6 9 -6 8 0 29 -13 46 -30 18 -16 39 -30 47 -30 8 0 15 -7 15
-15 0 -8 3 -14 8 -13 9 2 46 -14 52 -23 8 -11 132 -72 147 -72 7 0 13 -4 13
-9 0 -4 9 -8 20 -8 11 0 20 -4 20 -8 0 -4 27 -16 60 -25 33 -10 60 -23 60 -28
0 -6 4 -7 10 -4 5 3 29 1 52 -6 61 -16 62 -16 72 -17 5 0 13 -6 17 -14 7 -11
9 -11 9 1 0 11 3 11 15 1 8 -6 19 -9 24 -6 5 4 12 2 15 -3 4 -5 14 -8 23 -7
10 2 36 -3 60 -10 29 -9 43 -10 43 -2 0 7 4 7 13 -1 12 -9 63 -18 144 -23 12
-1 25 -8 28 -16 2 -7 0 -10 -5 -7 -6 3 -7 -1 -4 -9 3 -9 10 -16 14 -16 4 0 11
-7 14 -16 3 -8 2 -12 -4 -9 -6 3 -7 -1 -4 -9 3 -9 11 -13 18 -9 6 4 4 -2 -4
-12 -9 -11 -10 -16 -2 -11 8 5 12 0 12 -13 0 -12 4 -21 9 -21 6 0 8 -9 6 -20
-2 -11 1 -19 8 -17 7 1 11 -4 9 -10 -1 -7 4 -13 10 -13 9 0 8 -4 -2 -10 -13
-8 -12 -10 3 -10 10 0 15 -5 12 -10 -3 -6 -1 -10 5 -10 6 0 8 -5 5 -10 -4 -6
-1 -18 6 -26 10 -12 9 -13 -4 -9 -13 6 -14 1 -7 -29 5 -23 4 -38 -3 -43 -5 -3
-7 -1 -3 5 3 6 2 13 -3 16 -5 4 -8 -2 -6 -11 2 -10 4 -18 5 -18 1 0 4 -20 6
-44 2 -24 8 -49 14 -56 8 -10 8 -15 0 -20 -8 -5 -6 -14 7 -28 10 -11 12 -17 6
-13 -9 5 -11 2 -7 -8 3 -9 11 -13 18 -9 8 4 8 3 0 -6 -13 -14 14 -84 28 -75 5
3 7 2 6 -3 -4 -15 13 -53 24 -53 6 0 8 -8 5 -19 -3 -12 1 -18 12 -17 9 0 15
-4 14 -10 -1 -6 4 -11 12 -11 8 0 11 5 8 11 -4 6 1 5 10 -3 14 -11 20 -11 34
0 15 12 16 12 8 -1 -8 -13 -7 -13 8 -1 14 11 17 11 17 0 0 -12 2 -12 9 0 5 7
14 10 20 7 6 -4 11 -3 11 3 0 5 11 8 24 5 14 -2 28 0 31 6 3 5 11 10 16 10 6
0 7 -6 3 -12 -5 -9 -3 -9 9 1 9 7 28 11 42 9 15 -3 22 -1 18 5 -4 6 2 8 15 5
12 -4 22 -2 22 3 0 6 9 5 21 -2 15 -8 19 -8 15 0 -5 7 3 12 21 13 15 1 36 2
45 3 9 0 20 4 24 8 13 12 46 8 39 -5 -4 -7 0 -6 7 4 11 12 18 14 32 6 13 -7
17 -7 12 0 -3 5 1 12 9 16 8 3 15 0 15 -6 0 -7 7 -3 16 8 8 10 13 14 10 7 -4
-6 -2 -14 4 -18 5 -3 10 -2 10 3 0 10 36 23 43 15 3 -2 -4 -41 -14 -86 -27
-113 -30 -129 -32 -149 -1 -10 -5 -18 -10 -18 -4 0 -5 -4 -2 -10 3 -5 1 -36
-5 -67 -20 -105 -28 -151 -35 -218 -3 -27 -8 -57 -10 -65 -2 -8 -7 -37 -11
-65 -3 -27 -8 -61 -10 -75 -2 -14 -6 -45 -9 -70 -2 -25 -8 -61 -11 -80 -3 -19
-8 -60 -11 -90 -2 -30 -6 -68 -7 -85 -9 -76 -19 -196 -21 -255 -2 -36 -4 -65
-5 -65 -5 0 -11 -296 -13 -605 l-3 -355 -54 2 c-30 1 -71 4 -90 7 -93 12 -159
19 -197 20 -24 0 -43 3 -43 6 0 3 -27 5 -61 5 -33 0 -62 2 -64 5 -6 10 -301
-3 -380 -16 -16 -3 -41 -7 -55 -8 -14 -2 -32 -6 -40 -9 -8 -3 -38 -13 -66 -23
-108 -36 -165 -120 -159 -234 3 -82 5 -86 38 -140 33 -55 72 -100 87 -100 6 0
8 -4 5 -10 -3 -5 -2 -10 4 -10 6 0 35 -15 64 -34 53 -34 204 -88 282 -102 22
-4 45 -9 50 -13 12 -7 21 -8 115 -17 114 -11 389 -4 450 11 8 2 42 7 75 10 80
8 85 9 125 27 46 20 75 49 101 99 12 25 25 39 34 36 7 -3 16 -3 20 1 4 4 10 7
13 7 44 3 160 125 167 175 0 3 3 10 6 15 10 16 4 102 -8 117 -6 7 -14 29 -18
48 -12 52 -13 633 -2 648 6 8 6 12 -1 12 -5 0 -8 15 -6 32 1 18 5 112 9 208 3
96 8 198 10 225 10 144 23 291 32 350 3 22 7 56 8 75 2 19 4 35 5 35 1 0 3 14
5 30 3 36 14 120 19 155 2 14 8 48 12 75 4 28 9 57 10 65 2 8 6 37 9 64 3 27
8 52 9 55 2 3 7 31 11 61 9 67 23 99 36 79 5 -8 9 -10 9 -5 0 6 6 2 13 -8 7
-9 22 -18 34 -19 12 0 20 -4 18 -7 -1 -3 3 -11 11 -18 9 -8 14 -9 14 -2 0 6 7
4 16 -4 8 -9 20 -14 25 -11 5 4 9 1 9 -4 0 -6 9 -11 20 -11 11 0 20 -5 20 -11
0 -5 4 -8 9 -4 5 3 12 1 16 -5 4 -6 11 -8 16 -5 5 4 9 1 9 -5 0 -6 5 -8 10 -5
6 3 10 1 10 -5 0 -6 5 -8 10 -5 6 3 10 0 10 -7 0 -11 2 -11 9 0 6 10 11 6 19
-15 7 -15 13 -38 15 -50 2 -12 6 -25 9 -29 4 -3 4 -12 2 -19 -3 -7 -1 -22 5
-33 8 -15 8 -22 -2 -25 -9 -4 -9 -6 1 -6 6 -1 12 -6 12 -12 0 -5 -6 -7 -12 -3
-7 4 -5 -2 5 -13 10 -11 17 -24 16 -29 -5 -29 33 -80 50 -69 6 3 11 -2 12 -12
0 -16 1 -16 8 1 7 19 8 19 15 1 6 -17 7 -17 22 1 9 10 12 13 8 5 -5 -10 -1
-11 17 -5 13 4 33 8 45 9 11 1 24 4 30 6 5 3 16 5 24 4 8 0 18 4 22 10 5 6 8
4 8 -4 0 -11 4 -10 16 5 8 10 13 13 9 6 -4 -8 1 -11 14 -9 11 2 23 6 27 9 3 4
12 4 20 1 8 -3 14 -1 14 3 0 5 18 9 40 8 23 0 43 3 46 7 2 5 12 5 21 2 12 -5
14 -3 8 8 -8 12 -6 12 8 0 13 -11 17 -11 17 -1 0 8 3 10 7 7 3 -4 13 -1 21 6
13 10 14 9 7 -3 -8 -13 -7 -13 8 -1 12 9 17 10 17 2 0 -7 5 -9 10 -6 6 4 7 11
4 17 -4 6 2 6 15 -1 11 -7 21 -8 21 -3 0 4 12 7 28 7 35 -1 82 31 82 56 0 10
4 19 8 19 4 0 8 9 9 20 1 11 -1 20 -5 20 -4 0 -8 8 -9 18 -2 63 -8 102 -14
102 -4 0 -6 8 -4 18 1 9 -2 25 -7 34 -6 12 -5 18 3 18 8 0 7 5 -2 17 -10 11
-10 14 -1 9 7 -4 12 -2 12 4 0 6 4 9 9 6 5 -3 14 1 21 10 7 8 19 13 27 10 7
-3 13 1 13 9 0 8 6 15 14 15 8 0 18 5 22 12 4 7 3 8 -4 4 -7 -4 -12 -5 -12 -1
0 3 12 10 26 15 14 6 22 15 19 20 -4 6 -1 9 7 8 7 -2 12 3 10 10 -1 8 2 11 7
7 9 -5 55 -135 66 -185 2 -8 15 -49 30 -90 15 -41 29 -87 32 -103 3 -15 10
-27 16 -27 6 0 8 -3 4 -6 -3 -4 0 -19 9 -35 8 -16 12 -29 8 -29 -4 0 -2 -6 3
-12 6 -7 16 -31 23 -53 7 -22 15 -44 19 -50 3 -5 6 -12 7 -15 1 -7 13 -35 35
-89 11 -24 19 -50 19 -57 0 -8 5 -14 12 -14 6 0 9 -3 6 -6 -3 -3 12 -47 34
-97 22 -51 41 -99 43 -108 2 -9 8 -25 13 -35 15 -29 55 -118 58 -129 1 -5 12
-31 23 -57 12 -26 22 -51 22 -55 0 -5 9 -22 20 -39 10 -17 16 -34 12 -37 -3
-4 -1 -7 5 -7 7 0 12 -6 12 -13 0 -8 6 -27 14 -43 8 -16 23 -49 34 -74 44 -99
55 -125 57 -130 0 -3 10 -25 22 -50 18 -41 33 -76 38 -90 9 -28 76 -184 90
-210 7 -14 13 -28 14 -33 0 -4 9 -28 21 -53 11 -26 20 -49 20 -53 1 -3 9 -24
20 -46 26 -53 25 -65 -3 -59 -13 2 -41 5 -64 7 -22 2 -44 6 -49 8 -11 5 -207
2 -254 -4 -56 -7 -121 -26 -175 -50 -58 -25 -155 -93 -155 -108 0 -6 -4 -7
-10 -4 -5 3 -10 0 -10 -8 0 -8 -6 -20 -14 -26 -24 -20 -41 -135 -23 -159 5 -7
7 -15 3 -19 -3 -3 1 -15 11 -25 9 -10 13 -18 9 -18 -3 0 13 -20 36 -44 24 -23
46 -41 50 -39 4 2 9 -1 13 -7 11 -17 136 -66 195 -76 8 -2 33 -7 55 -13 22 -5
54 -12 70 -15 47 -8 87 -16 120 -24 17 -5 45 -8 63 -7 17 0 32 -2 32 -5 0 -7
154 -4 275 5 55 4 110 8 123 9 12 0 22 4 22 9 0 4 9 7 20 7 30 0 118 47 148
79 30 31 67 91 56 91 -3 0 2 12 12 27 27 42 24 135 -6 198 -13 28 -27 52 -30
55 -10 9 -52 104 -176 405 -47 116 -92 224 -99 240 -8 17 -26 59 -40 95 -32
78 -132 307 -191 438 -13 29 -24 57 -24 62 0 6 -4 10 -10 10 -5 0 -7 6 -4 13
3 8 -2 20 -11 27 -8 7 -15 18 -15 25 0 7 -7 25 -14 41 -8 15 -13 31 -11 35 3
4 -2 12 -10 19 -8 7 -15 18 -15 25 0 7 -10 34 -22 61 -12 27 -23 51 -23 54 -1
3 -9 23 -19 45 -10 22 -42 103 -73 180 -30 77 -59 149 -64 160 -5 11 -18 47
-29 80 -12 33 -25 69 -30 80 -8 19 -22 60 -26 80 -1 6 -9 27 -18 47 -9 21 -14
38 -11 38 3 0 1 9 -5 21 -6 11 -13 28 -15 37 -2 9 -13 49 -25 87 -29 95 -70
246 -74 270 -2 11 -6 31 -10 45 -10 44 -17 84 -21 128 -3 34 0 42 10 38 8 -3
17 -2 19 3 3 4 21 7 41 6 19 0 35 4 35 10 0 5 5 3 10 -5 6 -9 10 -11 10 -3 0
7 7 10 15 7 8 -4 15 -1 15 6 0 10 3 10 15 0 9 -7 15 -8 15 -2 0 5 18 9 39 8
22 0 37 2 35 5 -2 4 3 9 11 13 8 3 15 1 15 -4 0 -5 7 -7 15 -4 8 4 12 11 8 18
-4 6 1 5 10 -3 14 -11 17 -11 17 0 0 11 2 11 10 -1 6 -9 10 -10 10 -3 0 6 9
10 20 8 11 -2 20 2 20 8 0 7 4 6 10 -3 8 -12 10 -12 10 -1 0 8 3 12 6 8 3 -3
17 -2 30 3 15 6 26 5 30 -2 5 -7 12 -5 21 7 8 12 13 14 13 6 0 -11 3 -11 15
-1 12 10 18 10 32 -1 11 -10 14 -10 9 -2 -7 12 5 18 28 14 4 -1 15 4 24 11 13
11 15 11 8 -2 -4 -8 2 -3 14 13 12 15 29 27 38 27 13 0 14 2 4 9 -10 6 -10 10
2 21 11 8 13 17 7 29 -7 11 -4 22 7 35 9 11 11 16 5 12 -9 -5 -13 1 -13 19 0
17 4 24 12 19 8 -5 8 -3 2 7 -5 8 -10 25 -11 39 -1 14 -4 35 -8 48 -5 15 -3
22 6 22 9 0 7 5 -5 11 -15 9 -16 13 -5 20 10 6 11 9 2 9 -7 0 -13 5 -13 12 0
6 -8 21 -17 32 -17 20 -17 20 0 7 15 -12 17 -12 11 3 -3 9 -10 16 -15 16 -5 0
-9 9 -9 19 0 11 -7 27 -16 36 -14 13 -14 18 -2 32 11 14 11 16 -2 8 -13 -8
-13 -7 -1 8 8 10 9 17 3 17 -12 0 -10 56 3 67 4 4 5 2 0 -6 -6 -10 -4 -12 4
-6 9 5 9 11 3 17 -6 6 -7 22 -2 37 4 14 5 35 4 46 -4 22 -5 41 -3 95 0 19 -2
59 -4 88 -4 42 -2 52 9 48 8 -3 14 -2 14 3 0 5 10 9 23 10 52 3 72 6 77 13 4
4 23 9 43 10 20 2 37 7 37 11 0 5 4 6 9 2 5 -3 15 1 23 8 7 7 20 12 28 12 8 0
18 3 21 7 3 5 16 11 30 13 13 3 25 9 27 15 2 5 12 10 21 10 10 0 26 9 36 20
10 11 23 20 29 20 12 0 74 48 116 91 14 14 38 34 53 44 15 10 26 19 24 21 -2
2 20 29 50 60 29 31 53 61 53 67 0 6 3 7 7 4 3 -4 11 2 17 12 6 10 35 53 64
94 28 42 52 79 52 82 0 4 12 22 26 41 15 19 23 34 20 34 -4 0 1 12 12 28 11
15 23 37 26 50 4 12 11 22 16 22 5 0 7 6 4 14 -3 7 1 20 9 27 8 8 13 22 11 32
-1 9 1 15 6 12 6 -4 16 16 25 55 0 3 6 15 13 26 6 12 8 24 5 28 -3 3 -1 6 6 6
7 0 10 4 7 9 -4 5 3 30 14 55 10 25 17 46 15 46 -3 0 2 17 10 38 9 20 16 38
16 40 -1 1 -1 3 0 5 0 1 2 9 4 17 8 31 15 61 21 83 3 12 7 31 9 42 2 11 4 20
5 20 2 0 6 19 15 65 3 19 9 49 12 65 3 17 7 40 7 53 1 12 3 22 6 22 3 0 6 15
7 33 1 17 5 66 9 107 3 41 7 96 8 122 0 27 5 48 9 48 4 0 3 9 -3 19 -7 13 -7
22 0 26 7 4 7 13 0 24 -6 12 -5 22 2 29 7 7 8 12 2 12 -5 0 -10 9 -10 20 0 11
3 20 6 20 4 0 7 7 7 15 0 8 -3 15 -7 15 -4 0 -7 26 -7 58 -1 31 -4 65 -8 74
-4 9 -4 22 0 28 3 5 3 10 -2 10 -4 0 -10 17 -11 38 -5 47 -9 77 -11 77 -4 0
-11 40 -13 77 -2 21 -6 38 -10 38 -5 0 -8 14 -8 30 0 17 -5 30 -12 30 -9 0 -8
4 2 10 12 8 12 10 1 10 -8 0 -11 7 -8 20 3 11 1 20 -5 20 -5 0 -7 4 -3 9 3 5
1 12 -5 16 -5 3 -10 15 -10 26 0 10 -4 27 -9 37 -8 14 -21 45 -26 62 -19 65
-30 90 -37 90 -5 0 -7 4 -3 9 3 5 -1 15 -8 23 -7 7 -14 16 -15 21 -4 25 -27
75 -33 72 -4 -3 -12 9 -19 25 -7 17 -16 30 -21 30 -5 0 -9 6 -9 13 0 14 -75
87 -90 87 -5 0 -10 7 -10 16 0 8 -4 12 -10 9 -5 -3 -10 -1 -10 5 0 6 -4 8 -10
5 -5 -3 -10 -1 -10 5 0 6 -4 8 -10 5 -5 -3 -10 -1 -10 4 0 6 -11 11 -25 11
-14 0 -25 4 -25 8 0 4 -15 9 -32 11 -52 5 -83 9 -88 11 -3 1 -9 1 -15 0 -5 -1
-28 -4 -50 -6 -22 -1 -62 -7 -90 -12 -27 -6 -53 -8 -57 -6 -5 3 -11 -1 -14
-10 -3 -8 -12 -12 -19 -9 -8 2 -20 1 -27 -3 -7 -5 -22 -10 -33 -11 -10 -2 -23
-9 -27 -16 -6 -9 -8 -8 -8 2 0 11 -4 9 -15 -5 -8 -10 -15 -15 -15 -10 0 5 -7
3 -15 -4 -8 -7 -15 -9 -15 -5 0 5 -8 1 -17 -8 -10 -8 -27 -17 -38 -19 -11 -1
-26 -10 -33 -18 -11 -13 -11 -11 -2 8 6 12 16 22 21 22 6 0 8 8 5 18 -5 14 -3
13 9 -3 15 -19 16 -19 13 5 -2 17 1 24 11 22 9 -2 11 3 7 14 -5 12 -2 15 10
10 15 -6 15 -4 3 11 -9 11 -10 14 -1 9 7 -4 15 0 19 11 9 24 29 44 36 36 4 -3
5 4 2 15 -2 12 1 25 7 28 7 4 8 2 4 -4 -4 -7 -2 -12 3 -12 6 0 12 7 12 15 1 8
2 20 3 26 0 6 10 16 21 22 11 7 20 19 20 27 0 9 8 14 19 13 13 -1 15 2 7 10
-16 16 -14 30 4 23 8 -3 14 -2 14 2 -3 20 2 33 11 27 6 -3 7 1 4 9 -3 9 -1 16
5 16 6 0 11 9 11 20 0 11 7 20 16 20 8 0 13 4 10 9 -3 5 1 12 10 15 9 4 14 9
11 13 -4 3 -2 12 4 20 6 7 8 13 4 13 -4 0 1 8 12 18 10 9 12 13 3 7 -11 -7
-11 -5 3 11 9 11 17 27 17 35 0 12 2 11 11 -1 9 -12 10 -11 6 8 -3 12 -1 22 5
22 6 0 8 7 4 15 -3 8 0 14 7 12 7 -1 11 4 9 11 -1 7 5 15 13 18 8 4 15 10 15
16 0 5 -6 6 -12 3 -7 -4 -4 2 8 12 11 10 19 24 16 31 -2 6 5 12 15 12 14 0 15
2 4 9 -9 6 -10 10 -2 12 7 3 13 13 15 22 1 10 9 23 17 28 8 5 10 9 5 9 -5 0
-1 10 10 22 10 12 14 18 7 15 -6 -4 -14 -3 -17 2 -3 5 4 11 15 14 16 4 20 11
16 26 -3 12 -1 19 3 16 5 -3 14 4 20 16 10 17 9 20 -2 14 -7 -4 -2 3 12 14 21
18 22 20 5 15 -18 -6 -18 -5 3 15 24 24 29 36 10 26 -7 -4 -2 3 12 15 21 18
22 21 5 16 -17 -6 -16 -3 5 16 14 13 21 20 16 16 -21 -17 -28 -7 -8 10 17 15
19 21 9 32 -9 10 -9 11 1 6 6 -4 12 -2 12 4 0 6 4 9 9 5 5 -3 12 -1 15 4 4 5
1 13 -5 17 -8 5 -9 3 -4 -6 5 -9 4 -11 -4 -6 -9 6 -9 11 -1 21 8 10 7 14 -2
18 -7 3 -2 6 11 6 21 1 22 3 10 18 -10 11 -10 14 -1 9 6 -4 12 -3 12 3 0 5 -5
13 -10 16 -15 9 -2 25 15 19 10 -4 13 2 11 21 -3 19 0 25 10 21 8 -3 14 -1 14
4 0 6 -4 10 -9 10 -5 0 -11 6 -14 13 -3 8 1 14 9 14 8 0 14 -5 14 -10 0 -6 3
-8 6 -4 3 3 2 12 -2 19 -13 20 -15 48 -5 48 6 0 8 -8 6 -18 -2 -11 3 -19 11
-19 10 0 11 4 3 14 -6 7 -8 13 -5 13 4 0 2 9 -4 20 -7 14 -7 20 0 20 5 0 10
-5 10 -11 0 -5 5 -7 11 -3 8 4 3 12 -12 20 -13 7 -19 13 -12 14 7 0 10 7 7 15
-4 8 -1 15 4 15 6 0 9 -8 7 -18 -2 -11 3 -19 11 -19 9 0 11 4 4 12 -5 7 -7 15
-3 19 4 4 1 11 -7 16 -8 6 -10 10 -4 10 7 0 14 7 17 14 4 11 1 13 -11 10 -13
-5 -14 -4 -3 4 8 6 11 17 8 26 -3 8 -2 18 4 21 5 4 7 10 4 15 -3 5 0 12 6 16
8 4 9 3 5 -4 -5 -8 -1 -10 10 -5 14 5 13 8 -6 18 -19 10 -20 13 -6 18 9 4 16
2 16 -3 0 -6 5 -10 11 -10 5 0 8 4 5 9 -4 5 0 12 6 15 7 3 -3 3 -22 1 -33 -4
-34 -4 -10 7 14 7 26 13 28 14 1 0 0 9 -4 18 -3 9 -11 13 -16 10 -6 -4 -5 4 2
16 10 18 9 24 -1 32 -11 8 -10 9 4 4 20 -6 22 5 5 23 -11 10 -8 11 13 8 21 -4
25 -1 25 18 0 13 -4 21 -8 19 -5 -3 -5 -10 -2 -16 5 -7 2 -8 -6 -3 -9 6 -11 4
-5 -5 5 -8 4 -11 -3 -6 -7 4 -7 14 3 32 9 19 11 34 4 53 -9 25 -9 25 7 6 16
-20 16 -20 9 4 -5 18 -4 22 5 16 9 -6 11 -4 5 5 -4 7 -2 16 6 22 11 8 10 9 -3
4 -10 -3 -18 -1 -18 5 0 6 -6 7 -12 3 -7 -4 -5 1 4 12 14 16 15 23 5 34 -10
10 -9 11 2 5 11 -6 13 -4 8 8 -4 11 1 18 14 22 11 4 18 9 15 12 -3 4 0 11 7
17 7 6 10 10 8 9 -6 -4 -31 18 -31 28 0 5 8 6 18 3 10 -4 13 -3 6 3 -6 4 -10
16 -8 26 1 9 -2 14 -8 11 -5 -3 -7 -9 -4 -12 3 -3 -1 -14 -11 -24 -12 -13 -13
-18 -3 -18 7 0 11 -3 7 -6 -11 -12 -29 7 -18 20 6 7 11 29 13 49 2 32 5 36 23
31 20 -6 20 -6 0 11 l-20 17 20 -6 c19 -6 19 -6 1 9 -10 8 -22 12 -26 10 -4
-2 -5 7 -2 20 2 14 8 25 13 25 5 0 6 -7 3 -15 -7 -17 21 -21 31 -5 4 6 -1 7
-11 3 -13 -5 -15 -3 -8 8 4 8 10 23 11 34 3 18 2 18 -8 3 -16 -29 -25 -21 -24
20 1 20 -3 43 -9 51 -9 12 -8 12 11 1 12 -8 19 -18 16 -24 -3 -5 -1 -6 5 -3 5
4 9 15 8 25 -2 9 2 20 8 24 6 4 1 6 -11 5 -18 -1 -20 -4 -10 -17 9 -12 9 -13
-3 -2 -23 20 -20 93 3 120 11 12 15 22 9 22 -7 0 -12 -4 -12 -8 0 -5 -7 -9
-15 -9 -9 0 -11 5 -7 11 12 15 13 58 2 51 -6 -3 -7 1 -4 9 3 9 11 16 18 16 7
0 6 4 -3 9 -9 6 -10 11 -2 15 6 4 11 12 11 18 0 6 -7 5 -17 -3 -11 -10 -14
-10 -9 -1 13 22 13 154 -1 168 -15 15 -17 28 -3 19 6 -3 7 1 4 9 -3 9 -11 13
-18 9 -6 -4 -5 1 3 10 7 9 18 14 25 10 6 -4 5 1 -3 10 -14 17 -26 24 -17 9 3
-5 -1 -9 -9 -9 -10 0 -11 5 -4 19 6 11 15 16 22 11 8 -4 7 -1 -1 10 -8 9 -10
22 -6 29 6 10 5 10 -7 1 -14 -11 -16 -6 -20 85 -1 12 -5 22 -10 22 -5 0 -9 4
-9 10 0 5 8 7 18 4 11 -4 13 -3 5 3 -6 4 -14 25 -18 46 -4 20 -11 40 -17 43
-5 3 -4 12 3 20 9 11 9 14 0 14 -7 0 -10 4 -7 9 3 4 -1 17 -8 27 -10 13 -11
23 -4 31 7 9 7 13 -1 13 -6 0 -11 14 -11 30 0 17 -4 30 -9 30 -5 0 -8 14 -7
30 2 21 -2 30 -13 31 -12 0 -12 2 -3 6 10 4 9 10 -5 26 -10 11 -13 17 -6 14 6
-4 14 -3 18 3 3 5 0 10 -9 10 -9 0 -13 8 -12 25 2 13 -1 22 -5 19 -5 -3 -9 8
-9 25 0 16 -6 32 -12 34 -10 4 -10 6 1 6 9 1 8 6 -6 19 -10 9 -12 13 -4 7 12
-8 12 -7 3 11 -6 12 -8 25 -4 29 4 5 1 4 -7 0 -11 -6 -13 -4 -8 8 4 10 1 17
-5 17 -6 0 -8 3 -5 7 4 3 1 13 -6 21 -10 13 -9 15 3 8 12 -6 11 -4 -1 6 -9 7
-14 19 -12 26 3 6 0 12 -7 12 -6 0 -9 4 -5 9 3 5 -2 17 -11 25 -10 10 -11 16
-3 16 9 0 9 3 -1 15 -6 8 -9 18 -6 24 3 5 -1 11 -9 15 -8 3 -12 12 -9 21 3 8
2 15 -4 15 -5 0 -8 11 -7 25 2 14 -1 23 -6 19 -5 -3 -6 -10 -3 -16 4 -6 3 -8
-3 -5 -5 3 -9 16 -8 29 1 13 -5 29 -14 36 -9 8 -10 11 -3 7 10 -5 10 -1 1 19
-7 14 -15 23 -19 21 -4 -2 -6 6 -5 18 3 27 -13 49 -29 40 -6 -4 -5 1 3 10 12
15 11 17 -2 17 -10 0 -14 6 -11 15 4 8 1 15 -6 15 -6 0 -8 5 -5 11 4 6 -2 17
-13 25 -12 8 -19 21 -16 29 4 8 1 15 -6 15 -6 0 -9 4 -5 10 3 5 -4 19 -15 30
-11 11 -18 25 -15 30 3 4 0 10 -5 12 -6 2 -12 13 -13 25 0 12 -5 19 -9 17 -4
-3 -8 0 -8 7 0 6 -8 18 -17 25 -10 7 -19 17 -19 23 -1 6 -2 18 -3 27 0 8 -5
12 -11 9 -5 -3 -10 0 -10 9 0 8 -6 17 -12 19 -10 4 -9 6 1 6 8 1 3 9 -12 21
-14 11 -29 31 -32 43 -4 12 -17 30 -29 40 -11 10 -15 16 -8 12 18 -9 15 2 -7
24 -11 11 -22 16 -26 13 -3 -4 -3 2 1 12 5 14 4 17 -4 12 -7 -4 -12 -1 -12 9
0 9 -4 13 -10 10 -6 -3 -7 1 -4 9 4 11 0 16 -10 16 -9 0 -16 8 -16 19 0 10
-13 29 -30 42 -16 13 -30 29 -30 35 0 7 -7 15 -16 18 -8 3 -12 10 -9 16 3 5
-1 10 -10 10 -9 0 -14 4 -11 8 3 5 -4 14 -14 22 -10 8 -17 17 -14 22 3 4 -2 8
-10 8 -9 0 -16 5 -16 11 0 6 -20 31 -45 55 -24 24 -41 44 -37 44 4 0 -1 5 -11
11 -9 6 -15 14 -12 20 3 5 0 6 -8 3 -8 -3 -18 0 -23 7 -4 7 -3 10 3 6 5 -3 10
0 10 7 0 8 -9 12 -21 10 -12 -3 -15 -2 -8 2 13 6 17 25 5 23 -20 -3 -34 2 -28
11 3 6 1 10 -4 10 -11 0 -31 15 -80 58 -14 13 -20 21 -13 17 6 -3 12 -2 12 4
0 13 -37 24 -52 15 -9 -6 -9 -3 1 9 7 9 17 14 22 11 5 -3 6 2 3 10 -5 14 -8
14 -21 1 -20 -20 -26 -19 -14 3 7 14 6 19 -4 19 -8 0 -11 -5 -8 -11 4 -6 -1
-5 -11 3 -12 10 -13 16 -6 21 8 5 6 9 -5 13 -9 4 -13 3 -10 -3 3 -6 1 -10 -4
-10 -10 0 -16 21 -12 43 0 4 -5 6 -11 5 -7 -2 -12 2 -11 8 1 6 -5 11 -13 11
-10 0 -9 -7 8 -24 12 -12 17 -23 11 -23 -6 0 -14 7 -17 16 -3 8 -9 13 -14 10
-4 -2 -9 7 -10 20 -1 17 2 23 10 18 7 -4 8 -3 4 4 -11 18 -26 14 -27 -5 0 -11
-3 -13 -6 -5 -2 6 -10 9 -16 6 -8 -5 -8 -2 1 7 6 7 12 17 12 21 0 10 -29 6
-50 -6 -8 -5 -12 -6 -8 -1 10 11 -10 35 -25 31 -7 -1 -9 -1 -4 1 4 3 7 12 7
21 0 15 -2 15 -10 2 -8 -13 -10 -12 -10 3 0 9 -5 17 -11 17 -5 0 -7 5 -3 12 4
7 3 8 -5 4 -8 -6 -9 -12 -2 -20 8 -9 7 -13 -4 -13 -8 0 -12 3 -10 7 2 4 -7 13
-20 20 -14 7 -25 17 -25 22 0 5 -5 6 -12 2 -7 -5 -8 -3 -4 5 5 8 0 14 -13 18
-12 3 -21 10 -21 15 0 5 5 6 12 2 7 -5 8 -3 3 6 -5 9 -1 10 16 6 20 -6 21 -5
6 4 -9 6 -22 8 -27 5 -6 -3 -10 4 -10 16 0 35 -11 15 -12 -22 -1 -31 -2 -32
-11 -11 -6 12 -19 22 -31 23 -21 0 -21 1 -1 9 18 8 17 9 -7 9 -15 1 -33 8 -42
16 -8 9 -18 15 -21 15 -17 -4 -27 7 -11 13 11 4 15 3 10 -4 -4 -8 0 -7 15 0
21 12 28 22 14 20 -21 -3 -33 2 -27 13 4 7 3 8 -5 4 -6 -4 -9 -12 -6 -17 4 -5
3 -9 0 -9 -10 0 -65 30 -65 36 0 2 9 0 20 -6 15 -8 18 -8 15 3 -3 7 -17 14
-31 15 -14 1 -23 -2 -19 -8 3 -6 1 -10 -4 -10 -14 0 -14 13 1 28 9 9 9 12 1
12 -7 0 -15 -5 -18 -10 -5 -8 -11 -7 -21 1 -20 16 -17 32 4 27 11 -3 19 0 19
7 0 10 -7 11 -23 5 -12 -5 -25 -6 -30 -2 -4 4 -4 2 -1 -4 3 -6 0 -11 -8 -11
-8 0 -12 4 -9 8 2 4 -5 10 -16 14 -11 3 -20 11 -20 17 0 6 7 5 18 -3 15 -12
16 -12 5 2 -7 9 -9 20 -5 25 4 5 -2 1 -14 -9 -25 -21 -41 -22 -24 -2 7 9 10
18 6 22 -3 3 -6 1 -6 -7 0 -9 -3 -10 -13 -1 -8 6 -17 8 -20 4 -4 -3 -7 -1 -7
5 0 7 -5 12 -11 12 -5 0 -7 -6 -3 -12 5 -7 -9 0 -29 15 -29 22 -35 24 -31 10
3 -11 0 -9 -8 5 -11 18 -16 20 -27 10 -8 -7 -11 -8 -8 -3 2 6 -7 19 -21 29
-14 11 -22 14 -18 8 4 -7 3 -12 -3 -12 -5 0 -11 5 -13 11 -2 6 -16 12 -31 12
-15 0 -27 3 -27 8 0 5 -7 9 -16 9 -8 0 -13 4 -10 9 4 5 -3 7 -14 4 -12 -3 -20
0 -20 8 0 7 -3 9 -7 6 -3 -4 -13 -1 -21 6 -13 10 -14 9 -7 -3 4 -8 -2 -4 -15
8 -18 19 -24 21 -31 10 -8 -11 -13 -5 -11 13 1 3 -10 5 -23 3 -14 -1 -25 2
-25 7 0 5 -6 8 -12 6 -7 -1 -12 3 -11 8 1 6 -14 10 -33 10 -22 -1 -38 4 -44
14 -8 13 -9 13 -10 2 0 -11 -4 -9 -15 5 -8 10 -15 14 -15 7 0 -8 -6 -8 -24 0
-13 7 -22 15 -20 19 7 11 -4 10 -28 -3 -13 -7 -18 -7 -14 -1 3 6 2 13 -4 17
-5 3 -10 0 -10 -7 -1 -10 -4 -9 -13 2 -7 9 -23 16 -37 15 -14 0 -28 4 -32 9
-3 5 -26 11 -50 13 -23 3 -47 9 -53 14 -13 13 -28 11 -19 -2 3 -6 -5 -4 -18 5
-14 9 -28 13 -31 9 -4 -3 -7 -1 -7 7 0 10 -3 10 -15 0 -11 -9 -15 -9 -15 -1 0
7 -4 10 -9 7 -5 -4 -21 -2 -35 4 -19 7 -26 6 -26 -3 -1 -7 -6 -5 -14 5 -10 13
-15 15 -24 6 -9 -9 -12 -9 -12 2 0 7 -3 10 -6 7 -4 -3 -15 -2 -25 3 -12 7 -19
6 -22 -3 -3 -9 -8 -9 -21 2 -15 13 -19 13 -27 0 -6 -10 -9 -11 -9 -1 0 7 -4
10 -10 7 -5 -3 -10 -1 -10 6 0 9 -3 9 -14 0 -11 -9 -16 -9 -21 -1 -4 7 -18 9
-30 6 -14 -4 -25 -1 -28 7 -4 8 -6 8 -6 0 -1 -12 -38 -6 -59 10 -9 7 -11 6 -6
-8 6 -15 4 -16 -14 -6 -17 9 -22 9 -23 -1 0 -7 -4 -4 -9 7 -5 11 -9 15 -9 9
-1 -6 -8 -11 -16 -11 -8 0 -15 5 -15 11 0 6 -5 4 -10 -4 -8 -12 -10 -12 -10
-1 0 10 -3 11 -13 2 -8 -6 -16 -8 -19 -5 -10 9 -60 15 -54 6 6 -11 -45 -8 -63
2 -6 4 -11 1 -11 -6 0 -8 -3 -9 -8 -3 -9 13 -35 18 -28 6 4 -5 -3 -9 -14 -8
-11 1 -20 5 -20 10 0 5 -7 4 -15 -3 -12 -10 -18 -10 -29 -1 -11 9 -16 9 -21 1
-4 -7 -16 -10 -26 -7 -11 3 -19 0 -19 -6 0 -6 -7 -2 -15 9 -14 18 -15 18 -9 0z
m3832 -3361 c-3 -3 -9 2 -12 12 -6 14 -5 15 5 6 7 -7 10 -15 7 -18z m22 -692
c-1 -19 -19 -35 -30 -28 -10 6 -9 11 5 22 22 15 25 16 25 6z m-30 -143 c0 -5
-5 -10 -11 -10 -5 0 -7 5 -4 10 3 6 8 10 11 10 2 0 4 -4 4 -10z m-15 -60 c3
-5 1 -10 -4 -10 -6 0 -11 5 -11 10 0 6 2 10 4 10 3 0 8 -4 11 -10z m-337
-2126 c12 -8 22 -22 22 -30 0 -8 5 -14 11 -14 5 0 7 -5 4 -10 -3 -6 0 -12 7
-15 8 -3 15 -16 16 -29 1 -12 8 -36 16 -51 8 -16 13 -32 10 -37 -3 -4 0 -8 6
-8 7 0 10 -7 6 -15 -3 -8 -1 -15 5 -15 6 0 7 -4 4 -10 -3 -5 -2 -10 3 -10 5 0
9 -6 9 -12 1 -22 11 -67 18 -78 3 -5 8 -24 10 -42 5 -42 9 -60 16 -73 2 -5 4
-26 4 -47 0 -20 3 -34 6 -32 3 2 7 -14 8 -34 1 -35 8 -77 11 -77 9 0 6 -41 -3
-47 -8 -5 -8 -8 -1 -8 14 0 15 -178 2 -186 -4 -3 -5 -11 -1 -17 9 -15 11 -47
3 -47 -8 0 -6 -37 3 -46 4 -4 3 -12 -2 -18 -5 -6 -12 -31 -14 -56 -3 -25 -8
-57 -11 -71 -3 -14 -7 -42 -8 -62 -2 -20 -6 -37 -10 -37 -4 0 -5 -9 -3 -20 2
-11 0 -22 -5 -25 -5 -3 -7 -14 -5 -25 2 -11 0 -20 -4 -20 -4 0 -8 -6 -9 -12
-3 -42 -7 -58 -14 -58 -4 0 -7 -3 -6 -7 4 -18 -15 -93 -23 -93 -6 0 -7 -4 -4
-10 3 -5 3 -16 -2 -22 -4 -7 -9 -22 -10 -33 -2 -10 -9 -23 -16 -27 -6 -4 -9
-8 -4 -8 4 0 1 -15 -7 -34 -8 -19 -12 -37 -8 -40 3 -3 0 -6 -6 -6 -7 0 -12 -9
-12 -20 0 -11 -5 -20 -11 -20 -5 0 -7 -4 -4 -10 3 -5 1 -10 -4 -10 -6 0 -10
-3 -9 -7 2 -15 -34 -88 -48 -96 -8 -4 -14 -17 -14 -28 0 -11 -7 -22 -15 -25
-8 -4 -13 -9 -10 -13 4 -8 -69 -111 -89 -123 -6 -4 -7 -8 -3 -8 4 0 -6 -13
-23 -30 -16 -16 -30 -35 -30 -41 0 -7 -3 -9 -7 -6 -3 4 -15 -5 -25 -20 -10
-16 -18 -24 -18 -19 0 5 -14 -5 -30 -23 -17 -17 -35 -31 -40 -31 -6 0 -10 -4
-10 -9 0 -11 -126 -67 -167 -75 -34 -6 -36 -3 -36 47 0 9 -3 17 -6 17 -6 0
-11 20 -14 62 -1 9 -5 14 -9 12 -4 -3 -8 4 -8 16 0 12 -4 19 -9 16 -5 -3 -14
7 -20 22 -6 15 -24 37 -38 47 -15 11 -35 27 -44 36 -9 9 -25 22 -35 28 -12 6
-14 11 -5 11 11 0 11 3 0 17 -12 14 -12 16 0 8 10 -5 12 -4 7 3 -4 7 -9 20
-11 29 -8 41 -10 48 -20 55 -6 5 -5 8 3 8 7 0 10 5 7 10 -4 6 -10 8 -14 5 -5
-2 -6 7 -3 20 3 17 0 25 -9 25 -11 0 -11 2 1 10 11 7 11 10 2 10 -7 0 -11 4
-7 9 3 6 -3 14 -12 20 -10 6 -13 11 -7 11 6 0 11 7 11 15 0 8 -4 12 -9 9 -4
-3 -8 2 -8 10 0 9 -6 16 -12 16 -9 0 -8 4 2 10 10 6 11 10 3 10 -7 0 -13 7
-13 15 0 8 -3 14 -7 14 -19 -3 -33 2 -47 17 -9 8 -16 11 -16 5 0 -6 -5 -11
-11 -11 -5 0 -7 5 -4 10 3 6 1 10 -4 10 -6 0 -11 -6 -12 -12 -1 -20 -21 34
-24 62 -1 14 3 31 8 38 8 10 7 12 -4 10 -8 -2 -15 7 -17 21 -3 17 0 21 10 15
11 -6 11 -5 0 9 -8 9 -10 22 -6 28 4 8 3 9 -4 5 -7 -4 -12 -2 -12 3 0 6 6 11
13 11 6 0 4 5 -6 11 -15 9 -16 13 -5 27 9 11 9 14 1 9 -9 -6 -11 2 -9 27 1 21
-2 32 -8 29 -5 -4 -7 1 -3 10 4 10 2 17 -5 17 -7 0 -7 4 1 14 9 10 9 16 1 21
-6 4 -10 23 -8 42 2 22 -3 37 -12 43 -13 9 -13 10 0 10 13 0 13 1 0 10 -13 9
-13 10 0 10 10 0 11 3 4 8 -14 9 -21 62 -11 79 6 9 3 11 -9 6 -14 -5 -15 -3
-4 17 8 15 8 20 1 16 -12 -8 -11 21 2 41 6 9 3 11 -8 7 -12 -5 -14 -2 -8 12
13 36 35 64 46 57 5 -3 7 -1 3 5 -3 6 0 16 7 24 8 7 13 21 11 30 -1 10 4 22
12 29 8 6 11 15 8 20 -3 5 0 9 6 9 6 0 9 4 6 9 -3 5 1 14 9 21 8 7 13 16 10
20 -3 4 2 11 11 14 8 3 13 10 10 14 -3 5 6 20 19 34 13 14 21 29 18 32 -4 3
-2 6 4 6 6 0 16 13 23 30 7 16 16 27 21 24 5 -3 9 1 9 8 0 7 27 42 60 78 33
36 60 69 60 73 0 5 4 6 9 2 5 -3 12 4 16 15 3 11 12 20 20 20 7 0 20 11 29 25
9 14 23 25 31 25 7 0 17 9 20 20 3 11 11 20 16 20 13 0 118 87 113 94 -2 3 -1
4 3 1 3 -3 15 2 25 12 10 9 18 13 18 9 0 -4 12 5 27 19 15 14 36 25 46 25 10
0 20 7 24 16 3 8 11 13 18 10 8 -3 16 2 19 10 3 9 12 14 19 11 6 -2 17 2 22 9
6 7 19 14 30 16 11 2 26 9 33 16 7 6 21 12 31 12 10 0 21 3 25 7 9 9 34 15 69
15 15 0 27 4 27 9 0 13 13 11 38 -7z m-4140 -1526 c4 -38 7 -52 16 -67 7 -10
6 -12 -4 -6 -10 6 -11 4 -4 -6 4 -8 10 -21 11 -29 9 -58 14 -97 14 -112 0 -10
3 -18 7 -18 4 0 7 -12 6 -27 -1 -16 1 -32 4 -38 3 -5 7 -21 9 -35 2 -27 8 -66
18 -120 3 -19 7 -42 7 -50 0 -8 6 -21 12 -29 9 -12 8 -13 -3 -6 -11 6 -12 5
-5 -6 5 -8 9 -29 10 -47 1 -23 -3 -32 -13 -30 -8 2 -22 -8 -32 -22 -13 -20
-13 -23 -1 -16 8 4 7 1 -4 -8 -10 -8 -15 -19 -11 -25 3 -6 3 -17 -2 -23 -10
-18 -10 -52 1 -59 5 -4 5 -13 0 -20 -11 -18 -11 -109 0 -109 5 0 3 -7 -4 -15
-10 -12 -10 -15 1 -15 10 0 10 -3 1 -12 -15 -15 -16 -32 -2 -23 7 4 9 -3 6
-19 -3 -14 -2 -26 2 -26 4 0 7 -17 6 -37 0 -21 3 -43 8 -50 5 -7 5 -14 -2 -18
-6 -3 -8 -11 -5 -16 4 -5 1 -9 -5 -9 -6 0 -8 -4 -5 -10 3 -5 -5 -21 -19 -34
-14 -13 -26 -27 -26 -31 0 -5 -8 -17 -17 -28 -13 -15 -14 -18 -3 -12 12 7 13
6 3 -7 -7 -8 -10 -18 -6 -21 3 -4 2 -7 -3 -7 -15 0 -9 -86 7 -106 12 -16 12
-17 -1 -9 -12 6 -13 5 -2 -6 18 -19 15 -31 -7 -24 -10 3 -32 7 -47 9 -16 3
-41 9 -55 14 -15 6 -30 8 -33 5 -3 -4 -6 -2 -6 3 0 5 -12 11 -27 12 -15 1 -29
5 -32 10 -3 4 -15 9 -26 10 -11 2 -24 8 -29 13 -6 5 -18 9 -28 9 -10 0 -18 5
-18 11 0 6 -7 9 -15 5 -8 -3 -15 -1 -15 4 0 5 -11 12 -25 16 -14 3 -25 10 -25
15 0 5 -3 8 -7 7 -9 -3 -97 56 -130 87 -12 11 -28 25 -35 31 -30 25 -88 94
-88 104 0 5 -3 10 -8 10 -4 0 -12 8 -17 19 -6 10 -22 41 -38 69 -15 29 -26 55
-25 59 1 5 -3 17 -9 28 -5 11 -9 30 -8 42 1 12 -1 20 -5 18 -4 -2 -7 11 -8 30
-1 20 -6 44 -12 54 -7 14 -7 22 1 27 7 4 7 10 1 16 -6 6 -7 22 -2 39 5 16 7
29 4 29 -7 0 37 79 52 90 7 7 11 17 7 23 -3 6 -1 7 5 3 7 -4 12 -3 12 1 0 16
77 92 85 85 5 -4 5 -2 2 4 -7 12 38 64 55 64 6 0 9 2 6 5 -5 5 69 85 78 85 2
0 24 20 49 45 25 25 45 43 45 40 0 -3 10 4 23 17 13 13 36 32 51 43 15 11 37
28 48 38 12 9 26 17 33 17 7 0 20 9 30 20 10 11 22 17 26 14 5 -3 9 -1 9 5 0
6 7 8 15 5 8 -4 15 -2 15 4 0 8 28 20 60 26 3 1 10 4 15 7 6 4 20 5 32 4 12
-1 20 2 17 7 -3 4 3 8 13 8 12 0 19 -8 21 -22z m2929 -130 c0 -13 -1 -17 -4
-10 -3 6 -9 10 -13 7 -5 -3 -12 0 -16 6 -4 7 -3 9 4 5 6 -3 13 -2 17 4 9 14
11 13 12 -12z m37 14 c3 -5 -1 -9 -9 -9 -8 0 -15 4 -15 9 0 4 4 8 9 8 6 0 12
-4 15 -8z m-97 -24 c-7 -10 -14 -13 -15 -8 -3 8 -8 8 -17 0 -9 -8 -14 -7 -18
4 -4 10 -1 13 7 10 8 -3 16 -1 20 4 3 5 12 9 20 9 11 0 12 -4 3 -19z m-141
-23 c-9 -9 -16 -12 -16 -6 0 6 -5 11 -11 11 -6 0 -9 -7 -5 -15 8 -21 -1 -19
-14 4 -8 17 -7 19 15 16 14 -1 28 2 31 7 3 5 8 7 11 4 3 -3 -2 -12 -11 -21z
m81 10 c5 -4 2 -4 -6 0 -11 6 -13 4 -8 -11 7 -18 6 -18 -8 1 -14 17 -17 18
-25 5 -5 -8 -10 -10 -10 -4 0 23 39 30 57 9z m-170 -30 c0 -8 -4 -12 -9 -9 -5
3 -6 10 -3 15 9 13 12 11 12 -6z m-200 -32 c0 -10 -4 -10 -16 -1 -9 7 -18 13
-20 15 -2 1 5 1 16 0 11 0 20 -7 20 -14z m34 -6 c-10 -9 -11 -8 -5 6 3 10 9
15 12 12 3 -3 0 -11 -7 -18z m-96 4 c3 -5 2 -12 -3 -15 -5 -3 -9 1 -9 9 0 17
3 19 12 6z"/>
<path d="M8565 13181 c-6 -11 13 -26 22 -17 4 3 1 6 -6 6 -7 0 -9 5 -6 10 3 6
4 10 1 10 -3 0 -7 -4 -11 -9z"/>
<path d="M8590 13186 c0 -3 9 -10 20 -16 11 -6 20 -8 20 -6 0 3 -9 10 -20 16
-11 6 -20 8 -20 6z"/>
<path d="M8710 13086 c14 -8 21 -15 16 -16 -5 0 -3 -7 4 -15 13 -16 30 -11 29
8 0 9 -2 8 -6 -1 -2 -6 -9 -9 -14 -6 -6 4 -6 10 0 18 8 9 7 13 -2 13 -6 0 -21
4 -32 7 -13 5 -12 2 5 -8z"/>
<path d="M8821 13004 c-1 -6 5 -16 12 -22 10 -8 13 -6 14 11 2 15 0 18 -6 8
-7 -11 -9 -11 -14 0 -3 8 -6 9 -6 3z"/>
<path d="M9725 11981 c-3 -5 -2 -12 3 -15 5 -3 9 1 9 9 0 17 -3 19 -12 6z"/>
<path d="M10215 10631 c-3 -5 -2 -12 3 -15 5 -3 9 1 9 9 0 17 -3 19 -12 6z"/>
<path d="M3075 10530 c-3 -5 -2 -10 4 -10 5 0 13 5 16 10 3 6 2 10 -4 10 -5 0
-13 -4 -16 -10z"/>
<path d="M10265 10161 c-3 -5 0 -13 6 -17 7 -4 9 -3 5 4 -3 5 0 13 6 15 9 4
10 6 1 6 -6 1 -14 -3 -18 -8z"/>
<path d="M10274 10085 c-9 -14 -15 -27 -13 -28 2 -2 13 -9 23 -17 18 -13 19
-13 11 0 -14 23 -15 43 -3 57 6 7 8 13 4 13 -3 0 -13 -11 -22 -25z"/>
<path d="M10268 9773 c7 -3 16 -2 19 1 4 3 -2 6 -13 5 -11 0 -14 -3 -6 -6z"/>
<path d="M10250 9606 c0 -2 7 -7 16 -10 8 -3 12 -2 9 4 -6 10 -25 14 -25 6z"/>
<path d="M10246 9582 c-3 -5 1 -9 9 -9 8 0 12 4 9 9 -3 4 -7 8 -9 8 -2 0 -6
-4 -9 -8z"/>
<path d="M10230 9359 c0 -5 5 -7 10 -4 6 3 10 8 10 11 0 2 -4 4 -10 4 -5 0
-10 -5 -10 -11z"/>
<path d="M10216 9337 c3 -10 9 -15 12 -12 3 3 0 11 -7 18 -10 9 -11 8 -5 -6z"/>
<path d="M10175 9200 c-3 -5 -1 -10 5 -10 6 0 8 -5 4 -12 -4 -7 -3 -8 5 -4 6
4 9 11 6 16 -3 4 1 11 7 13 8 4 7 6 -4 6 -9 1 -20 -3 -23 -9z"/>
</g>
</svg>
